# xmcd
# 
# Track frame offsets:
#     150
#     26359
#     49751
#     73751
#     95329
#     129195
#     160355
# 
# Disc length: 2368
# 
# Revision: 1
# Processed by: cddbd v1.5.2PL0 Copyright (c) Steve Scherf et al.
# Submitted via: fre:ac v1.0.31
# 
DISCID=53093e07
DTITLE=Curtis Mayfield - Roots
DYEAR=1972
DGENRE=R&B
TTITLE0=Get Down
TTITLE1=Keep On Keeping On
TTITLE2=Underground
TTITLE3=We Got To Have Peace
TTITLE4=Beautiful Brother Of Mine
TTITLE5=Now You're Gone
TTITLE6=Love To Keep You In My Mind
EXTD=
EXTT0=
EXTT1=
EXTT2=
EXTT3=
EXTT4=
EXTT5=
EXTT6=
PLAYORDER=
